<svg width="16" height="16" viewBox="0 0 16 16" fill="none" xmlns="http://www.w3.org/2000/svg">
    <path d="M12.5304 7.55141L4.48036 1.26391C4.45932 1.24735 4.43404 1.23706 4.40742 1.23422C4.3808 1.23138 4.35392 1.23611 4.32987 1.24785C4.30581 1.2596 4.28556 1.2779 4.27143 1.30064C4.2573 1.32338 4.24987 1.34964 4.25 1.37641V2.75677C4.25 2.84427 4.29107 2.9282 4.35893 2.98177L10.7875 8.00141L4.35893 13.0211C4.28929 13.0746 4.25 13.1586 4.25 13.2461V14.6264C4.25 14.7461 4.3875 14.8121 4.48036 14.7389L12.5304 8.45141C12.5988 8.39804 12.6541 8.32977 12.6922 8.2518C12.7303 8.17382 12.7501 8.08819 12.7501 8.00141C12.7501 7.91464 12.7303 7.82901 12.6922 7.75103C12.6541 7.67305 12.5988 7.60478 12.5304 7.55141Z" fill="#A2AAB5"/>
</svg>
