<svg xmlns="http://www.w3.org/2000/svg" width="10" height="10" viewBox="0 0 10 10" fill="none">
    <path fill-rule="evenodd" clip-rule="evenodd" d="M9.1768 1.1768C9.37208 0.981533 9.37208 0.664951 9.1768 0.469689C8.98154 0.274427 8.66496 0.274427 8.4697 0.469689L0.469704 8.46969C0.274422 8.66495 0.274422 8.98153 0.469704 9.1768C0.664955 9.37206 0.981544 9.37206 1.1768 9.1768L9.1768 1.1768ZM9.1768 5.1768C9.37208 4.98153 9.37208 4.66495 9.1768 4.46969C8.98154 4.27443 8.66496 4.27443 8.4697 4.46969L4.4697 8.46969C4.27442 8.66495 4.27442 8.98153 4.4697 9.1768C4.66496 9.37206 4.98154 9.37206 5.1768 9.1768L9.1768 5.1768Z" fill="#C1C7D0"/>
</svg>
